<mxfile host="app.diagrams.net" modified="2020-10-28T20:31:04.324Z" agent="5.0 (X11; Linux x86_64) AppleWebKit/537.36 (KHTML, like Gecko) Chrome/86.0.4240.75 Safari/537.36" etag="QKWD62cmW8tNEI_RRI3w" version="13.6.5" type="github">
  <diagram id="-gNR-SX9HZmFKM1fWBXX" name="Page-1">
    <mxGraphModel dx="1117" dy="779" grid="1" gridSize="10" guides="1" tooltips="1" connect="1" arrows="1" fold="1" page="1" pageScale="1" pageWidth="850" pageHeight="1100" math="0" shadow="0">
      <root>
        <mxCell id="0" />
        <mxCell id="1" parent="0" />
        <mxCell id="ZGkaGtBlXBVSzkNMTwmu-13" style="rounded=0;orthogonalLoop=1;jettySize=auto;html=1;exitX=0;exitY=0.5;exitDx=0;exitDy=0;entryX=0.5;entryY=0;entryDx=0;entryDy=0;fillColor=#dae8fc;" edge="1" parent="1" source="ZGkaGtBlXBVSzkNMTwmu-1" target="ZGkaGtBlXBVSzkNMTwmu-2">
          <mxGeometry relative="1" as="geometry" />
        </mxCell>
        <mxCell id="ZGkaGtBlXBVSzkNMTwmu-14" style="edgeStyle=none;rounded=0;orthogonalLoop=1;jettySize=auto;html=1;exitX=0.5;exitY=1;exitDx=0;exitDy=0;entryX=0.5;entryY=0;entryDx=0;entryDy=0;fillColor=#dae8fc;" edge="1" parent="1" source="ZGkaGtBlXBVSzkNMTwmu-1" target="ZGkaGtBlXBVSzkNMTwmu-3">
          <mxGeometry relative="1" as="geometry" />
        </mxCell>
        <mxCell id="ZGkaGtBlXBVSzkNMTwmu-15" style="edgeStyle=none;rounded=0;orthogonalLoop=1;jettySize=auto;html=1;exitX=0.5;exitY=1;exitDx=0;exitDy=0;entryX=0.5;entryY=0;entryDx=0;entryDy=0;fillColor=#dae8fc;" edge="1" parent="1" source="ZGkaGtBlXBVSzkNMTwmu-1" target="ZGkaGtBlXBVSzkNMTwmu-4">
          <mxGeometry relative="1" as="geometry" />
        </mxCell>
        <mxCell id="ZGkaGtBlXBVSzkNMTwmu-1" value="VPC" style="rounded=1;whiteSpace=wrap;html=1;fillColor=#dae8fc;strokeColor=#6c8ebf;" vertex="1" parent="1">
          <mxGeometry x="290" y="80" width="60" height="30" as="geometry" />
        </mxCell>
        <mxCell id="ZGkaGtBlXBVSzkNMTwmu-19" style="edgeStyle=none;rounded=0;orthogonalLoop=1;jettySize=auto;html=1;exitX=0.5;exitY=1;exitDx=0;exitDy=0;entryX=0.25;entryY=0;entryDx=0;entryDy=0;fillColor=#dae8fc;" edge="1" parent="1" source="ZGkaGtBlXBVSzkNMTwmu-2" target="ZGkaGtBlXBVSzkNMTwmu-7">
          <mxGeometry relative="1" as="geometry" />
        </mxCell>
        <mxCell id="ZGkaGtBlXBVSzkNMTwmu-27" style="edgeStyle=none;rounded=0;orthogonalLoop=1;jettySize=auto;html=1;exitX=0.5;exitY=1;exitDx=0;exitDy=0;entryX=0;entryY=0.5;entryDx=0;entryDy=0;fillColor=#dae8fc;" edge="1" parent="1" source="ZGkaGtBlXBVSzkNMTwmu-2" target="ZGkaGtBlXBVSzkNMTwmu-9">
          <mxGeometry relative="1" as="geometry" />
        </mxCell>
        <mxCell id="ZGkaGtBlXBVSzkNMTwmu-28" style="edgeStyle=none;rounded=0;orthogonalLoop=1;jettySize=auto;html=1;exitX=0.5;exitY=1;exitDx=0;exitDy=0;entryX=0;entryY=0.5;entryDx=0;entryDy=0;fillColor=#dae8fc;" edge="1" parent="1" source="ZGkaGtBlXBVSzkNMTwmu-2" target="ZGkaGtBlXBVSzkNMTwmu-10">
          <mxGeometry relative="1" as="geometry" />
        </mxCell>
        <mxCell id="ZGkaGtBlXBVSzkNMTwmu-2" value="Target Group" style="rounded=1;whiteSpace=wrap;html=1;fillColor=#dae8fc;strokeColor=#6c8ebf;" vertex="1" parent="1">
          <mxGeometry x="90" y="160" width="60" height="30" as="geometry" />
        </mxCell>
        <mxCell id="ZGkaGtBlXBVSzkNMTwmu-16" style="edgeStyle=none;rounded=0;orthogonalLoop=1;jettySize=auto;html=1;exitX=0.75;exitY=1;exitDx=0;exitDy=0;entryX=0.5;entryY=0;entryDx=0;entryDy=0;fillColor=#dae8fc;" edge="1" parent="1" source="ZGkaGtBlXBVSzkNMTwmu-3" target="ZGkaGtBlXBVSzkNMTwmu-7">
          <mxGeometry relative="1" as="geometry" />
        </mxCell>
        <mxCell id="ZGkaGtBlXBVSzkNMTwmu-24" style="edgeStyle=none;rounded=0;orthogonalLoop=1;jettySize=auto;html=1;exitX=0.25;exitY=1;exitDx=0;exitDy=0;entryX=0.25;entryY=0;entryDx=0;entryDy=0;fillColor=#dae8fc;" edge="1" parent="1" source="ZGkaGtBlXBVSzkNMTwmu-3" target="ZGkaGtBlXBVSzkNMTwmu-8">
          <mxGeometry relative="1" as="geometry" />
        </mxCell>
        <mxCell id="ZGkaGtBlXBVSzkNMTwmu-3" value="Subnet" style="rounded=1;whiteSpace=wrap;html=1;fillColor=#dae8fc;strokeColor=#6c8ebf;" vertex="1" parent="1">
          <mxGeometry x="220" y="160" width="60" height="30" as="geometry" />
        </mxCell>
        <mxCell id="ZGkaGtBlXBVSzkNMTwmu-17" style="edgeStyle=none;rounded=0;orthogonalLoop=1;jettySize=auto;html=1;exitX=0.25;exitY=1;exitDx=0;exitDy=0;entryX=0.5;entryY=0;entryDx=0;entryDy=0;fillColor=#dae8fc;" edge="1" parent="1" source="ZGkaGtBlXBVSzkNMTwmu-4" target="ZGkaGtBlXBVSzkNMTwmu-7">
          <mxGeometry relative="1" as="geometry" />
        </mxCell>
        <mxCell id="ZGkaGtBlXBVSzkNMTwmu-23" style="edgeStyle=none;rounded=0;orthogonalLoop=1;jettySize=auto;html=1;exitX=0.75;exitY=1;exitDx=0;exitDy=0;entryX=0.75;entryY=0;entryDx=0;entryDy=0;fillColor=#dae8fc;" edge="1" parent="1" source="ZGkaGtBlXBVSzkNMTwmu-4" target="ZGkaGtBlXBVSzkNMTwmu-8">
          <mxGeometry relative="1" as="geometry" />
        </mxCell>
        <mxCell id="ZGkaGtBlXBVSzkNMTwmu-4" value="Security Group" style="rounded=1;whiteSpace=wrap;html=1;fillColor=#dae8fc;strokeColor=#6c8ebf;" vertex="1" parent="1">
          <mxGeometry x="360" y="160" width="60" height="30" as="geometry" />
        </mxCell>
        <mxCell id="ZGkaGtBlXBVSzkNMTwmu-18" style="edgeStyle=none;rounded=0;orthogonalLoop=1;jettySize=auto;html=1;exitX=0.5;exitY=1;exitDx=0;exitDy=0;entryX=0.75;entryY=0;entryDx=0;entryDy=0;fillColor=#dae8fc;" edge="1" parent="1" source="ZGkaGtBlXBVSzkNMTwmu-5" target="ZGkaGtBlXBVSzkNMTwmu-7">
          <mxGeometry relative="1" as="geometry" />
        </mxCell>
        <mxCell id="ZGkaGtBlXBVSzkNMTwmu-5" value="Cluster" style="rounded=1;whiteSpace=wrap;html=1;fillColor=#dae8fc;strokeColor=#6c8ebf;" vertex="1" parent="1">
          <mxGeometry x="480" y="160" width="60" height="30" as="geometry" />
        </mxCell>
        <mxCell id="ZGkaGtBlXBVSzkNMTwmu-21" style="edgeStyle=none;rounded=0;orthogonalLoop=1;jettySize=auto;html=1;exitX=0.5;exitY=1;exitDx=0;exitDy=0;entryX=0.5;entryY=0;entryDx=0;entryDy=0;fillColor=#dae8fc;" edge="1" parent="1" source="ZGkaGtBlXBVSzkNMTwmu-6" target="ZGkaGtBlXBVSzkNMTwmu-11">
          <mxGeometry relative="1" as="geometry" />
        </mxCell>
        <mxCell id="ZGkaGtBlXBVSzkNMTwmu-6" value="Log&lt;br&gt;Group" style="rounded=1;whiteSpace=wrap;html=1;fillColor=#dae8fc;strokeColor=#6c8ebf;" vertex="1" parent="1">
          <mxGeometry x="580" y="160" width="60" height="30" as="geometry" />
        </mxCell>
        <mxCell id="ZGkaGtBlXBVSzkNMTwmu-7" value="Service" style="rounded=1;whiteSpace=wrap;html=1;fillColor=#dae8fc;strokeColor=#6c8ebf;" vertex="1" parent="1">
          <mxGeometry x="290" y="280" width="60" height="30" as="geometry" />
        </mxCell>
        <mxCell id="ZGkaGtBlXBVSzkNMTwmu-25" style="edgeStyle=none;rounded=0;orthogonalLoop=1;jettySize=auto;html=1;exitX=0.5;exitY=1;exitDx=0;exitDy=0;entryX=0.5;entryY=0;entryDx=0;entryDy=0;fillColor=#dae8fc;" edge="1" parent="1" source="ZGkaGtBlXBVSzkNMTwmu-8" target="ZGkaGtBlXBVSzkNMTwmu-9">
          <mxGeometry relative="1" as="geometry" />
        </mxCell>
        <mxCell id="ZGkaGtBlXBVSzkNMTwmu-8" value="Load balancer" style="rounded=1;whiteSpace=wrap;html=1;fillColor=#dae8fc;strokeColor=#6c8ebf;" vertex="1" parent="1">
          <mxGeometry x="290" y="350" width="60" height="30" as="geometry" />
        </mxCell>
        <mxCell id="ZGkaGtBlXBVSzkNMTwmu-26" style="edgeStyle=none;rounded=0;orthogonalLoop=1;jettySize=auto;html=1;exitX=0.5;exitY=1;exitDx=0;exitDy=0;entryX=0.5;entryY=0;entryDx=0;entryDy=0;fillColor=#dae8fc;" edge="1" parent="1" source="ZGkaGtBlXBVSzkNMTwmu-9" target="ZGkaGtBlXBVSzkNMTwmu-10">
          <mxGeometry relative="1" as="geometry" />
        </mxCell>
        <mxCell id="ZGkaGtBlXBVSzkNMTwmu-9" value="Listener" style="rounded=1;whiteSpace=wrap;html=1;fillColor=#dae8fc;strokeColor=#6c8ebf;" vertex="1" parent="1">
          <mxGeometry x="290" y="430" width="60" height="30" as="geometry" />
        </mxCell>
        <mxCell id="ZGkaGtBlXBVSzkNMTwmu-10" value="Listener rule" style="rounded=1;whiteSpace=wrap;html=1;fillColor=#dae8fc;strokeColor=#6c8ebf;" vertex="1" parent="1">
          <mxGeometry x="290" y="510" width="60" height="30" as="geometry" />
        </mxCell>
        <mxCell id="ZGkaGtBlXBVSzkNMTwmu-20" style="edgeStyle=none;rounded=0;orthogonalLoop=1;jettySize=auto;html=1;exitX=0;exitY=0.5;exitDx=0;exitDy=0;entryX=1;entryY=0.5;entryDx=0;entryDy=0;fillColor=#dae8fc;" edge="1" parent="1" source="ZGkaGtBlXBVSzkNMTwmu-11" target="ZGkaGtBlXBVSzkNMTwmu-7">
          <mxGeometry relative="1" as="geometry" />
        </mxCell>
        <mxCell id="ZGkaGtBlXBVSzkNMTwmu-11" value="Task definition" style="rounded=1;whiteSpace=wrap;html=1;fillColor=#dae8fc;strokeColor=#6c8ebf;" vertex="1" parent="1">
          <mxGeometry x="600" y="240" width="60" height="30" as="geometry" />
        </mxCell>
        <mxCell id="ZGkaGtBlXBVSzkNMTwmu-22" style="edgeStyle=none;rounded=0;orthogonalLoop=1;jettySize=auto;html=1;exitX=0.5;exitY=1;exitDx=0;exitDy=0;entryX=0.75;entryY=0;entryDx=0;entryDy=0;fillColor=#dae8fc;" edge="1" parent="1" source="ZGkaGtBlXBVSzkNMTwmu-12" target="ZGkaGtBlXBVSzkNMTwmu-11">
          <mxGeometry relative="1" as="geometry" />
        </mxCell>
        <mxCell id="ZGkaGtBlXBVSzkNMTwmu-12" value="Exec&lt;br&gt;role" style="rounded=1;whiteSpace=wrap;html=1;fillColor=#dae8fc;strokeColor=#6c8ebf;" vertex="1" parent="1">
          <mxGeometry x="700" y="160" width="60" height="30" as="geometry" />
        </mxCell>
      </root>
    </mxGraphModel>
  </diagram>
</mxfile>
